<svg xmlns="http://www.w3.org/2000/svg" xmlns:xlink="http://www.w3.org/1999/xlink" width="1920" height="1080" viewBox="0 0 1920 1080">
  <defs>
    <clipPath id="clip-Web_1920_4">
      <rect width="1920" height="1080"/>
    </clipPath>
  </defs>
  <g id="Web_1920_4" data-name="Web 1920 – 4" clip-path="url(#clip-Web_1920_4)">
    <rect width="1920" height="1080" fill="#fff"/>
    <g id="Group_112" data-name="Group 112" transform="translate(-58.589)" opacity="0.645">
      <g id="Polygon_2" data-name="Polygon 2" transform="translate(535.018 500.088) rotate(30)" fill="#fff6b4" opacity="0.268">
        <path d="M 65.6312255859375 66.19263458251953 L 12.08998107910156 66.19263458251953 C 10.10445880889893 66.19263458251953 8.325114250183105 65.16678619384766 7.330236434936523 63.44849014282227 C 6.3353590965271 61.73020172119141 6.331570148468018 59.67632293701172 7.32009220123291 57.95436477661133 L 34.09070205688477 11.32168865203857 C 35.08345794677734 9.592389106750488 36.86659240722656 8.559967041015625 38.86060333251953 8.559967041015625 C 40.8546028137207 8.559967041015625 42.63773727416992 9.592389106750488 43.6304931640625 11.32168865203857 L 70.40111541748047 57.95436477661133 C 71.3896484375 59.67632293701172 71.38585662841797 61.73020172119141 70.39098358154297 63.44849014282227 C 69.39610290527344 65.16678619384766 67.61676025390625 66.19263458251953 65.6312255859375 66.19263458251953 Z" stroke="none"/>
        <path d="M 38.86059188842773 10.05995941162109 C 37.41040420532227 10.05995941162109 36.11357879638672 10.81080627441406 35.3915901184082 12.06848907470703 L 8.6209716796875 58.701171875 C 7.891311645507812 59.97218322753906 7.893989562988281 61.42857360839844 8.628334045410156 62.69689178466797 C 9.362686157226562 63.96520614624023 10.62440490722656 64.692626953125 12.08998107910156 64.692626953125 L 65.6312255859375 64.692626953125 C 67.0968017578125 64.692626953125 68.3585205078125 63.96521759033203 69.09286499023438 62.6968994140625 C 69.82720184326172 61.42857360839844 69.82989501953125 59.97218322753906 69.10022735595703 58.7011604309082 L 42.32961654663086 12.06850051879883 C 41.60760498046875 10.81081771850586 40.3107795715332 10.05995941162109 38.86059188842773 10.05995941162109 M 38.860595703125 7.059967041015625 C 41.22337341308594 7.059967041015625 43.58615112304688 8.231605529785156 44.93136978149414 10.57489013671875 L 71.70198822021484 57.20755767822266 C 74.38098907470703 61.87420654296875 71.01217651367188 67.692626953125 65.6312255859375 67.692626953125 L 12.08998107910156 67.692626953125 C 6.709030151367188 67.692626953125 3.340202331542969 61.87420654296875 6.019218444824219 57.20755767822266 L 32.78982543945312 10.57489013671875 C 34.13504409790039 8.231605529785156 36.49782180786133 7.059967041015625 38.860595703125 7.059967041015625 Z" stroke="none" fill="#ffe200"/>
      </g>
      <g id="Group_106" data-name="Group 106" transform="translate(299.419 278.867) rotate(-25)" opacity="0.268">
        <rect id="Rectangle_41" data-name="Rectangle 41" width="72.196" height="45.783" transform="translate(0 8.804)" fill="#fff6b4" stroke="#ffe200" stroke-width="3"/>
        <ellipse id="Ellipse_47" data-name="Ellipse 47" cx="15.408" cy="15.408" rx="15.408" ry="15.408" transform="translate(10.565 16.728)" fill="#fff" stroke="#ffe200" stroke-width="3"/>
        <rect id="Rectangle_42" data-name="Rectangle 42" width="20.25" height="8.804" transform="translate(51.946 0)" fill="#fff6b4" stroke="#ffe200" stroke-width="3"/>
      </g>
      <g id="Group_108" data-name="Group 108" transform="translate(1696.039 257.055) rotate(13)" opacity="0.268">
        <g id="Rectangle_44" data-name="Rectangle 44" fill="#fff6b4" stroke="#ffe200" stroke-width="3">
          <rect width="48.893" height="81.732" stroke="none"/>
          <rect x="1.5" y="1.5" width="45.893" height="78.732" fill="none"/>
        </g>
        <g id="Ellipse_48" data-name="Ellipse 48" transform="translate(19.703 65.677)" fill="#fff" stroke="#ffe200" stroke-width="3">
          <ellipse cx="5.108" cy="5.108" rx="5.108" ry="5.108" stroke="none"/>
          <ellipse cx="5.108" cy="5.108" rx="3.608" ry="3.608" fill="none"/>
        </g>
      </g>
      <g id="Polygon_1" data-name="Polygon 1" transform="translate(1407.529 574.669) rotate(-30)" fill="#fff6b4" opacity="0.268">
        <path d="M 56.868408203125 58.6712646484375 L 12.07784938812256 58.6712646484375 C 10.09331893920898 58.6712646484375 8.31442928314209 57.64619445800781 7.319299221038818 55.92919158935547 C 6.324179172515869 54.21219253540039 6.31904935836792 52.15909194946289 7.30557918548584 50.43714141845703 L 29.70084953308105 11.34722232818604 C 30.69308853149414 9.615312576293945 32.47711944580078 8.581342697143555 34.47312927246094 8.581342697143555 C 36.46913909912109 8.581342697143555 38.25315856933594 9.615312576293945 39.24539947509766 11.34722232818604 L 61.64068984985352 50.43714141845703 C 62.62722015380859 52.15909194946289 62.62208938598633 54.21219253540039 61.62696075439453 55.92919158935547 C 60.63182830810547 57.64619445800781 58.85292816162109 58.6712646484375 56.868408203125 58.6712646484375 Z" stroke="none"/>
        <path d="M 34.47311782836914 10.08132171630859 C 33.0214729309082 10.08132171630859 31.72400665283203 10.83330154418945 31.00237274169922 12.09287643432617 L 8.607105255126953 51.18280029296875 C 7.878917694091797 52.45382308959961 7.882553100585938 53.90966796875 8.617084503173828 55.17702102661133 C 9.351619720458984 56.44438934326172 10.61301803588867 57.17125701904297 12.07785034179688 57.17125701904297 L 56.868408203125 57.17125701904297 C 58.3332405090332 57.17125701904297 59.59464263916016 56.44438934326172 60.32917404174805 55.17702102661133 C 61.06370544433594 53.90966796875 61.06734085083008 52.45382308959961 60.33916473388672 51.18280029296875 L 37.94387435913086 12.09288787841797 C 37.22224044799805 10.83331298828125 35.92476272583008 10.08132171630859 34.47311782836914 10.08132171630859 M 34.47312545776367 7.081329345703125 C 36.83776092529297 7.081329345703125 39.20240020751953 8.254734039306641 40.54692840576172 10.60154342651367 L 62.94221878051758 49.69146728515625 C 65.61579895019531 54.35810089111328 62.24665069580078 60.17125701904297 56.868408203125 60.17125701904297 L 12.07785034179688 60.17125701904297 C 6.699607849121094 60.17125701904297 3.330459594726562 54.35810089111328 6.004039764404297 49.69146728515625 L 28.39931869506836 10.60154342651367 C 29.74384689331055 8.254734039306641 32.10848617553711 7.081329345703125 34.47312545776367 7.081329345703125 Z" stroke="none" fill="#ffe200"/>
      </g>
      <g id="Group_110" data-name="Group 110" transform="matrix(0.966, 0.259, -0.259, 0.966, 1669.703, 807.706)" opacity="0.268">
        <rect id="Rectangle_41-2" data-name="Rectangle 41" width="76.846" height="48.731" transform="translate(0 9.371)" fill="#fff6b4" stroke="#ffe200" stroke-width="3"/>
        <ellipse id="Ellipse_47-2" data-name="Ellipse 47" cx="16.4" cy="16.4" rx="16.4" ry="16.4" transform="translate(11.246 17.806)" fill="#fff" stroke="#ffe200" stroke-width="3"/>
        <rect id="Rectangle_42-2" data-name="Rectangle 42" width="21.554" height="9.371" transform="translate(55.291 0)" fill="#fff6b4" stroke="#ffe200" stroke-width="3"/>
      </g>
      <g id="Group_111" data-name="Group 111" transform="matrix(0.602, -0.799, 0.799, 0.602, 293.589, 834.481)" opacity="0.268">
        <g id="Rectangle_44-2" data-name="Rectangle 44" fill="#fff6b4" stroke="#ffe200" stroke-width="3">
          <rect width="48.893" height="81.732" stroke="none"/>
          <rect x="1.5" y="1.5" width="45.893" height="78.732" fill="none"/>
        </g>
        <g id="Ellipse_48-2" data-name="Ellipse 48" transform="translate(19.703 65.677)" fill="#fff" stroke="#ffe200" stroke-width="3">
          <ellipse cx="5.108" cy="5.108" rx="5.108" ry="5.108" stroke="none"/>
          <ellipse cx="5.108" cy="5.108" rx="3.608" ry="3.608" fill="none"/>
        </g>
      </g>
    </g>
  </g>
</svg>
